<?xml version="1.0" standalone="no"?>
<!DOCTYPE svg PUBLIC "-//W3C//DTD SVG 20010904//EN"
 "http://www.w3.org/TR/2001/REC-SVG-20010904/DTD/svg10.dtd">
<svg version="1.0" xmlns="http://www.w3.org/2000/svg"
 width="512.000000pt" height="512.000000pt" viewBox="0 0 512.000000 512.000000"
 preserveAspectRatio="xMidYMid meet">
<metadata>
Created by potrace 1.14, written by Peter Selinger 2001-2017
</metadata>
<g transform="translate(0.000000,512.000000) scale(0.100000,-0.100000)"
fill="#000000" stroke="none">
<path d="M0 2560 l0 -2560 2560 0 2560 0 0 2560 0 2560 -2560 0 -2560 0 0
-2560z m1310 1156 c0 -542 3 -987 8 -989 4 -3 40 3 80 14 130 33 178 67 357
249 271 275 325 346 325 423 0 71 -78 119 -218 133 l-72 7 0 40 0 40 94 -7
c122 -9 566 -9 645 0 l61 7 0 -40 0 -40 -59 -12 c-33 -7 -93 -28 -133 -48 -81
-40 -132 -88 -472 -445 l-188 -197 380 -519 c209 -285 405 -543 434 -573 56
-56 102 -84 158 -95 l32 -7 -4 299 c-3 257 -6 306 -22 349 -38 105 -102 154
-213 163 l-63 5 0 41 0 41 233 0 c226 1 258 4 400 40 l27 7 0 -228 1 -229 43
82 c97 185 201 280 377 344 184 67 419 58 570 -22 76 -41 152 -122 190 -204
55 -117 58 -159 59 -835 0 -338 4 -653 10 -699 17 -150 74 -206 223 -220 l72
-6 3 -44 3 -44 -128 7 c-165 9 -546 9 -691 0 l-113 -7 3 44 3 44 62 7 c69 7
95 18 136 56 56 53 57 62 57 811 0 703 -3 765 -40 865 -48 127 -183 186 -359
156 -188 -32 -339 -168 -421 -380 -55 -144 -60 -210 -60 -780 0 -544 4 -600
47 -659 27 -37 89 -64 156 -69 l57 -4 0 -46 0 -45 -113 7 c-145 9 -526 9 -685
0 l-123 -7 3 44 3 44 65 6 c70 7 132 29 164 57 10 9 28 37 40 62 20 43 21 63
24 451 l3 406 -91 7 c-113 9 -396 9 -558 0 l-123 -7 3 44 c3 42 4 44 40 50 64
10 100 58 77 101 -17 32 -485 714 -521 761 -17 20 -51 49 -76 64 -45 27 -158
57 -174 47 -10 -7 -9 -655 1 -755 15 -145 70 -206 195 -218 l61 -6 3 -44 3
-44 -123 7 c-158 9 -505 9 -676 0 l-133 -7 3 44 3 44 70 7 c121 11 184 54 211
143 22 75 21 2493 -1 2580 -29 109 -94 167 -211 186 l-74 12 0 36 0 36 233 1
c194 1 246 5 317 21 47 11 91 21 98 22 9 1 12 -202 12 -983z"/>
</g>
</svg>
